<svg width="103" height="61" viewBox="0 0 103 61" fill="none" xmlns="http://www.w3.org/2000/svg">
<path d="M97.8685 18.0423C98.3779 18.3704 98.96 18.5526 99.5785 18.5526C101.361 18.5526 102.78 17.0946 102.78 15.3451C102.78 13.5955 101.325 12.1376 99.5785 12.1376C97.8322 12.1376 96.3769 13.5955 96.3769 15.3451C96.3769 15.8189 96.486 16.2563 96.6679 16.6573L87.4632 25.8789L72.8739 18.2975C72.9466 18.0059 72.983 17.7143 72.983 17.3862C72.983 14.9806 71.0184 13.0123 68.6171 13.0123C67.6348 13.0123 66.7252 13.3404 65.9976 13.8871L54.901 3.90006C54.901 3.79071 54.901 3.68136 54.901 3.57202C54.901 1.60376 53.3002 0 51.3355 0C49.3709 0 47.77 1.60376 47.77 3.57202C47.77 4.59259 48.2066 5.54027 48.8979 6.15991L43.3678 18.261C43.1859 18.2246 43.0039 18.2246 42.822 18.2246C41.585 18.2246 40.4572 18.6984 39.584 19.4274L23.7213 11.4815C23.7577 11.2992 23.7577 11.1534 23.7577 10.9712C23.7577 8.56555 21.8294 6.63374 19.4282 6.63374C17.0269 6.63374 15.0987 8.56555 15.0987 10.9712C15.0987 13.3768 17.0269 15.3086 19.4282 15.3086C20.9926 15.3086 22.3388 14.4703 23.1028 13.2675L38.4562 20.9583C38.1287 21.6508 37.9104 22.3798 37.9104 23.2181C37.9104 24.0564 38.1287 24.8583 38.4925 25.5509L30.6339 34.8089C29.3242 33.5332 27.5414 32.7678 25.5768 32.7678C22.8845 32.7678 20.5196 34.2622 19.2826 36.4491L6.91265 30.2528C6.73074 28.5032 5.23906 27.1546 3.45632 27.1546C1.52806 27.1546 0 28.7219 0 30.6173C0 32.5126 1.56444 34.08 3.45632 34.08C4.80247 34.08 6.00309 33.2781 6.54882 32.1481L18.555 38.1623C18.4095 38.7454 18.3003 39.4015 18.3003 40.0212C18.3003 41.8801 19.028 43.5932 20.1558 44.8689L13.8253 54.7102C12.5519 54.8195 11.5696 55.8765 11.5696 57.1523C11.5696 58.5009 12.6611 59.5944 14.0072 59.5944C15.3534 59.5944 16.4448 58.5009 16.4448 57.1523C16.4448 56.4233 16.1174 55.7672 15.6444 55.3298L21.5747 46.0717C22.7026 46.8007 24.0851 47.2745 25.5404 47.2745C27.8689 47.2745 29.9063 46.1811 31.2524 44.5044L38.4562 49.1334C38.0559 49.7895 37.8377 50.555 37.8377 51.3568C37.8377 53.7625 39.8023 55.7307 42.2035 55.7307C44.2409 55.7307 45.9145 54.3457 46.4239 52.4503L62.9415 46.9829C63.851 48.7325 65.6702 49.9353 67.7803 49.9353C68.9809 49.9353 70.1088 49.5344 71.0184 48.8419L79.3863 57.1523C79.3863 57.1887 79.3863 57.1887 79.3863 57.2252C79.3863 58.9018 80.7325 60.2869 82.4424 60.2869C84.116 60.2869 85.4985 58.9383 85.4985 57.2252C85.4985 55.5485 84.1524 54.1634 82.4424 54.1634C81.4965 54.1634 80.6961 54.6008 80.1139 55.2569L72.2917 47.5297C72.8739 46.6549 73.2013 45.6343 73.2013 44.5044C73.2013 42.0988 71.6369 40.0576 69.4903 39.3286V21.6508C70.5454 21.4321 71.4549 20.8125 72.0734 19.9741L86.5172 27.5191L96.7043 43.3016C96.486 43.6661 96.3405 44.067 96.3405 44.5044C96.3405 45.7072 97.3228 46.6914 98.5234 46.6914C99.724 46.6914 100.706 45.7072 100.706 44.5044C100.706 43.3016 99.724 42.3175 98.5234 42.3175C98.4507 42.3175 98.3779 42.3175 98.3051 42.3175L88.591 27.3004L97.8685 18.0423ZM50.5715 7.03469C50.8262 7.10758 51.0808 7.10758 51.3355 7.10758C52.4634 7.10758 53.4821 6.56085 54.1369 5.72252L64.797 15.3086C64.4695 15.9283 64.2512 16.6573 64.2512 17.3862C64.2512 19.4638 65.7065 21.2134 67.6712 21.6508V39.037C66.6161 39.0735 65.6338 39.3651 64.8334 39.9118L47.6245 24.4574C47.7337 24.0564 47.8064 23.6555 47.8064 23.2181C47.8064 21.3228 46.7513 19.6825 45.2233 18.8442L50.5715 7.03469ZM46.4967 50.4821C46.0964 48.5138 44.3501 47.0194 42.2399 47.0194C41.3304 47.0194 40.4936 47.311 39.8023 47.7848L32.2711 42.9371C32.6714 42.0623 32.8897 41.0782 32.8897 40.0576C32.8897 38.6725 32.4894 37.3968 31.8346 36.3033L39.6568 27.0088C40.5299 27.7378 41.6214 28.1752 42.822 28.1752C44.4229 28.1752 45.8418 27.4098 46.7513 26.2069L63.4508 41.224C62.7596 42.1352 62.3594 43.2651 62.3594 44.5044C62.3594 44.7596 62.3957 44.9782 62.3957 45.2334L46.4967 50.4821Z" fill="url(#paint0_linear_7_476)"/>
<defs>
<linearGradient id="paint0_linear_7_476" x1="0" y1="30.1236" x2="102.772" y2="30.1236" gradientUnits="userSpaceOnUse">
<stop stop-color="#5454D4"/>
<stop offset="0.0326061" stop-color="#6256C8"/>
<stop offset="0.1397" stop-color="#8C5DA5"/>
<stop offset="0.253" stop-color="#AF6387"/>
<stop offset="0.3717" stop-color="#CC686E"/>
<stop offset="0.4975" stop-color="#E36C5B"/>
<stop offset="0.6339" stop-color="#F36F4D"/>
<stop offset="0.7884" stop-color="#FC7145"/>
<stop offset="1" stop-color="#FF7143"/>
</linearGradient>
</defs>
</svg>
